<svg width="28" height="26" viewBox="0 0 28 26" fill="none" xmlns="http://www.w3.org/2000/svg">
<path d="M14 0.50067C10.5667 0.465782 7.26006 1.79547 4.80673 4.1975C2.3534 6.59954 0.954146 9.87737 0.916489 13.3106C0.929718 16.0239 1.80253 18.6631 3.40957 20.8493C5.0166 23.0354 7.27516 24.656 9.86085 25.4783C10.515 25.5972 10.7529 25.2047 10.7529 24.8598C10.7529 24.5149 10.7529 23.7536 10.7529 22.6832C7.11332 23.4563 6.3402 20.9704 6.3402 20.9704C6.09791 20.19 5.58282 19.523 4.88912 19.0911C3.69971 18.3061 4.98427 18.318 4.98427 18.318C5.39539 18.373 5.78873 18.5203 6.1348 18.749C6.48086 18.9776 6.77067 19.2817 6.98248 19.6383C7.35159 20.2783 7.95724 20.7479 8.66908 20.9458C9.38091 21.1438 10.142 21.0544 10.7886 20.6968C10.8551 20.0455 11.15 19.4387 11.6212 18.9841C8.71902 18.663 5.67413 17.5687 5.67413 12.6564C5.64818 11.3751 6.12164 10.1338 6.99437 9.19526C6.59691 8.09513 6.64384 6.88342 7.12521 5.81733C7.12521 5.81733 8.23136 5.4724 10.6934 7.12568C12.8366 6.55457 15.092 6.55457 17.2352 7.12568C19.733 5.4724 20.8034 5.81733 20.8034 5.81733C21.2848 6.88342 21.3317 8.09513 20.9343 9.19526C21.8273 10.1166 22.3264 11.3495 22.3259 12.6327C22.3259 17.5568 19.2572 18.6392 16.3788 18.9603C16.694 19.2663 16.9375 19.6383 17.0917 20.0497C17.2459 20.461 17.3071 20.9013 17.2709 21.3391V24.8479C17.2709 24.8479 17.5088 25.5972 18.1629 25.4664C20.7413 24.639 22.9922 23.0181 24.5943 20.835C26.1964 18.6519 27.0676 16.0184 27.0835 13.3106C27.0459 9.87737 25.6466 6.59954 23.1933 4.1975C20.7399 1.79547 17.4333 0.465782 14 0.50067Z" fill="white"/>
</svg>
