<svg width="20" height="12" viewBox="0 0 20 12" fill="none" xmlns="http://www.w3.org/2000/svg">
<path d="M19.0648 0.723282L19.0594 0.74134L19.0554 0.759749C19.0036 0.999918 18.8189 1.41652 18.5289 1.94972C18.2479 2.4665 17.8953 3.04463 17.5472 3.58943C17.1998 4.13319 16.8603 4.63841 16.6072 5.00821C16.4807 5.19298 16.376 5.3436 16.303 5.44792C16.2665 5.50008 16.238 5.54059 16.2187 5.56792L16.2131 5.57577L16.2017 5.58714L16.1713 5.63628C16.1676 5.64214 16.1639 5.6481 16.1602 5.65417C16.0596 5.81608 15.9125 6.05269 15.8904 6.32949C15.8642 6.65616 16.0083 6.92971 16.198 7.17494C16.2274 7.21399 16.2638 7.25297 16.2837 7.27429L16.2844 7.27507C16.3156 7.30854 16.3553 7.34991 16.4007 7.39662C16.4489 7.44634 16.5077 7.50646 16.5738 7.57397C16.6302 7.63165 16.6919 7.69472 16.7568 7.7613C17.043 8.05495 17.4142 8.44031 17.7933 8.85894C18.1734 9.27865 18.5559 9.72569 18.8664 10.1425C19.1834 10.5682 19.3927 10.9198 19.4711 11.1598C19.5125 11.3028 19.5 11.3635 19.493 11.3812C19.4829 11.3894 19.4127 11.4405 19.1915 11.4405H17.0046C16.871 11.4405 16.7804 11.4156 16.6945 11.3706C16.5977 11.3198 16.4847 11.2319 16.3228 11.0695C16.1908 10.9372 16.0467 10.7769 15.8639 10.5737C15.8196 10.5244 15.773 10.4726 15.7238 10.4181C15.4764 10.1441 15.1762 9.81707 14.7964 9.43722L14.7964 9.43715L14.7896 9.43059C13.4817 8.17124 12.7985 7.87619 12.2634 7.87619C12.096 7.87619 11.8217 7.881 11.592 8.04245C11.3337 8.22402 11.2551 8.50543 11.2214 8.72845C11.1869 8.95658 11.1819 9.25632 11.1828 9.62112C11.1832 9.77713 11.1847 9.94298 11.1863 10.1262C11.1888 10.4003 11.1916 10.7133 11.1916 11.0903C11.1916 11.206 11.1811 11.2577 11.1727 11.2809C11.1724 11.2817 11.1722 11.2825 11.1719 11.2832C11.17 11.2889 11.1691 11.2916 11.1538 11.3019C11.0748 11.3549 10.8248 11.4405 10.1285 11.4405C8.01073 11.4405 5.60379 10.1453 3.86687 7.65226L3.86689 7.65224L3.86357 7.64758C2.52851 5.7774 1.68282 4.14082 1.17247 2.90893C0.917173 2.29271 0.746684 1.77991 0.640803 1.39181C0.530989 0.989286 0.5 0.754366 0.5 0.679555C0.5 0.632927 0.504143 0.60618 0.507389 0.592497C0.532713 0.581147 0.60105 0.559517 0.749986 0.559517H2.93683C3.14051 0.559517 3.19542 0.601757 3.22292 0.626881C3.27569 0.675071 3.34906 0.784828 3.45242 1.07472C3.99917 2.66865 4.7338 4.16397 5.43254 5.26856C5.78119 5.81971 6.1297 6.28759 6.45102 6.62433C6.61119 6.79218 6.77593 6.93948 6.94112 7.04818C7.09711 7.15084 7.30523 7.2537 7.5407 7.2537C7.64277 7.2537 7.78448 7.24301 7.9285 7.17747C8.08634 7.10564 8.20532 6.98743 8.28558 6.84151C8.42061 6.59599 8.4454 6.26634 8.4454 5.91832V2.69561V2.68187L8.44464 2.66815C8.39798 1.81978 8.14235 1.32605 7.88353 0.973223C7.82757 0.896943 7.77261 0.828756 7.72806 0.773501L7.71931 0.762644C7.6701 0.701561 7.63775 0.660682 7.61245 0.623995C7.59398 0.597221 7.58491 0.58054 7.58048 0.571053C7.58253 0.569613 7.5853 0.568015 7.58907 0.56647C7.59543 0.563862 7.60919 0.559517 7.63352 0.559517H11.0716C11.1128 0.559517 11.1397 0.562791 11.1557 0.565819C11.1591 0.575586 11.1633 0.589706 11.1675 0.609274C11.1793 0.664554 11.1879 0.746556 11.1879 0.865195V5.19803C11.1879 5.76658 11.4785 6.3255 12.0369 6.3255C12.5546 6.3255 12.931 5.98752 13.4115 5.50703L13.4213 5.4972L13.4306 5.48683C14.2573 4.56257 14.9516 3.40294 15.4343 2.49034C15.6772 2.03105 15.8698 1.628 16.002 1.33918C16.0681 1.19467 16.1193 1.07848 16.1541 0.997833C16.1715 0.957501 16.1849 0.926033 16.194 0.904331L16.2045 0.879206L16.2069 0.873349L16.2073 0.872342L16.2076 0.871817C16.2547 0.760151 16.3075 0.689721 16.3657 0.645684C16.418 0.606091 16.5114 0.559517 16.6965 0.559517H18.8833C18.9909 0.559517 19.0564 0.571771 19.0921 0.5825C19.0907 0.611987 19.084 0.658144 19.0648 0.723282ZM16.1922 5.60527C16.1917 5.60594 16.1918 5.60571 16.1924 5.60499L16.1922 5.60527ZM19.4898 11.3871C19.4896 11.3869 19.4903 11.3852 19.4926 11.3823C19.4912 11.3857 19.49 11.3872 19.4898 11.3871ZM0.511194 0.580489C0.511215 0.580517 0.511016 0.581016 0.510534 0.581901L0.511194 0.580489ZM0.496702 0.598039C0.49563 0.598915 0.495028 0.599297 0.494995 0.599269C0.494962 0.599241 0.495498 0.598803 0.496702 0.598039ZM7.5766 0.560745C7.5766 0.561004 7.5766 0.561259 7.5766 0.561512C7.57649 0.561114 7.57652 0.561037 7.57656 0.56095C7.57658 0.560903 7.5766 0.560852 7.5766 0.560745Z" fill="white" stroke="white"/>
</svg>
