<svg width="26" height="26" viewBox="0 0 26 26" fill="none" xmlns="http://www.w3.org/2000/svg">
<mask id="mask0_7_66" style="mask-type:luminance" maskUnits="userSpaceOnUse" x="0" y="0" width="26" height="26">
<path d="M0.5 0.5H25.5V25.5H0.5V0.5Z" fill="white"/>
</mask>
<g mask="url(#mask0_7_66)">
<path d="M24.9785 7.27774C24.8408 6.77862 24.5659 6.32229 24.1814 5.95449C23.7969 5.58669 23.3162 5.32034 22.7876 5.18215C20.8314 4.66745 12.9936 4.66745 12.9936 4.66745C9.72548 4.63054 6.45822 4.79428 3.21275 5.15764C2.68395 5.30593 2.20408 5.5784 1.81846 5.94936C1.43284 6.32031 1.15418 6.77749 1.00879 7.27774C0.658158 9.16737 0.487945 11.0827 0.500181 13.0007C0.487106 14.9189 0.657325 16.8343 1.00879 18.7239C1.15119 19.2227 1.42925 19.6782 1.81566 20.0457C2.20206 20.4131 2.68352 20.6797 3.21275 20.8194C5.19502 21.3341 12.9936 21.3341 12.9936 21.3341C16.2661 21.3711 19.5378 21.2073 22.7876 20.8439C23.3162 20.7057 23.7969 20.4394 24.1814 20.0716C24.5659 19.7038 24.8408 19.2474 24.9785 18.7483C25.3381 16.8596 25.5127 14.944 25.5002 13.0253C25.5272 11.098 25.3524 9.17289 24.9785 7.27774ZM10.5028 16.567V9.4346L17.0234 13.0007L10.5028 16.567Z" fill="white"/>
</g>
</svg>
